<svg xmlns="http://www.w3.org/2000/svg" viewBox="0 0 630 630"><symbol xmlns="http://www.w3.org/2000/svg" viewBox="0 0 630 630" id="65fb33db-9128-4b29-a71e-7c1ed5677c01"><path d="M0 0h630v630H0z" fill="#f0db4f"></path><path d="m165.7 526.5 48.2-29.2c9.3 16.5 17.7 30.4 38 30.4 19.5 0 31.7-7.6 31.7-37.2V289.2h59.2v202.2c0 61.3-35.9 89.2-88.3 89.2-47.4 0-74.9-24.5-88.9-54.1m209.4-6.4 48.2-27.9c12.7 20.7 29.2 36 58.4 36 24.5 0 40.1-12.3 40.1-29.2 0-20.3-16-27.5-43-39.3l-14.9-6.4c-42.7-18.2-71-41-71-89.2 0-44.4 33.8-78.3 86.7-78.3 37.6 0 64.7 13.2 84.1 47.4l-46 29.6c-10.2-18.2-21.2-25.4-38.1-25.4-17.4 0-28.4 11-28.4 25.4 0 17.8 11 25 36.4 36l14.8 6.3c50.3 21.6 78.6 43.6 78.6 93 0 53.3-41.8 82.5-98 82.5-55 0-90.6-26.2-107.9-60.5" fill="#323330"></path></symbol><use href="#65fb33db-9128-4b29-a71e-7c1ed5677c01"></use></svg>