<svg xmlns="http://www.w3.org/2000/svg" viewBox="0 0 300 300"><symbol xmlns="http://www.w3.org/2000/svg" viewBox="0 0 300 300" id="5c85c350-5723-46f8-ae81-98b663d57cc6"><path fill="#1572b6" d="M50 263 28 13h245l-22 250-101 28zm0 0"></path><path fill="#33a9dc" d="m150 270 82-23 19-214H150zm0 0"></path><path fill="#fff" d="M150 124h41l3-31h-44V62h78l-1 8-8 85h-69zm0 0"></path><path fill="#ebebeb" d="m151 204-35-9-2-25H83l5 48 63 18zm0 0"></path><path fill="#fff" d="m189 153-4 42-34 9v32l63-18v-5l5-60zm0 0"></path><path fill="#ebebeb" d="M151 62v31H76v-7l-2-16v-8zm-1 62v31h-33l-1-7-1-16-1-8zm0 0"></path></symbol><use href="#5c85c350-5723-46f8-ae81-98b663d57cc6"></use></svg>