<svg xmlns="http://www.w3.org/2000/svg" viewBox="0 0 300 300"><symbol xmlns="http://www.w3.org/2000/svg" viewBox="0 0 300 300" id="23a06ca3-4821-4ae4-b5bb-c8449266ac21"><path fill="#e34f26" d="M50 264 28 13h246l-22 251-101 28"></path><path fill="#ef652a" d="m151 270 82-22 19-215H151"></path><path fill="#ebebeb" d="M151 126h-41l-2-31h43V64H74v8l8 85h69zm0 80-35-9-2-24H84l3 48 64 18z"></path><path fill="#fff" d="M151 126v31h38l-4 40-34 9v33l63-18 1-5 7-82 1-8h-9zm0-62v31h74l1-7 2-16v-8z"></path></symbol><use href="#23a06ca3-4821-4ae4-b5bb-c8449266ac21"></use></svg>