<svg xmlns="http://www.w3.org/2000/svg" xmlns:xlink="http://www.w3.org/1999/xlink" width="32px" height="32px" viewBox="0 0 32 32" version="1.1">
  <title>Icons/concept/Database/Database SQL</title>
  <desc>Created with Sketch.</desc>
  <g id="Icons/concept/Database/Database-SQL" stroke="none" stroke-width="1" fill="none" fill-rule="evenodd">
    <path d="M23.6181758,8.78088237 C25.6755218,9.28117318 26.8994527,9.94746701 26.9940754,10.887177 L27,11.0060725 L27,11.0060725 L27,29.0008675 C27,30.8346234 22.1091408,32 16,32 C9.86028686,32 5,30.8482888 5,29.0008675 L5,11.0060725 C5,10.0103234 6.25123372,9.29898425 8.38182421,8.78088237 C8.65014281,8.71563455 8.92056712,8.88019305 8.9858338,9.14843406 C9.05110049,9.41667507 8.88649439,9.68702118 8.61817579,9.75226899 C6.94436364,10.1592948 6,10.6961752 6,11.0060725 C6,11.3363869 6.96807618,11.8796565 8.70157075,12.2904316 C10.6170702,12.7443353 13.2232484,13.0054942 16,13.0054942 C18.7688289,13.0054942 21.3760923,12.740981 23.2978246,12.2830775 C25.0277563,11.8708755 26,11.3269749 26,11.0060725 C26,10.6904515 25.0663159,10.1618917 23.3818242,9.75226899 C23.1135056,9.68702118 22.9488995,9.41667507 23.0141662,9.14843406 C23.0794329,8.88019305 23.3498572,8.71563455 23.6181758,8.78088237 Z M16,26.0117321 C11.5261375,26.0117321 7.72889129,25.3953596 5.99965808,24.3446464 L6,29.0008675 C6,29.3311819 6.96807618,29.8744514 8.70157075,30.2852266 C10.6170702,30.7391303 13.2232484,31.0002892 16,31.0002892 C18.7688289,31.0002892 21.3760923,30.735776 23.2978246,30.2778724 C25.0277563,29.8656705 26,29.3217699 26,29.0008675 L26.0015571,24.3394772 C24.2704547,25.390856 20.4659182,26.0117321 16,26.0117321 Z M16,20.0134671 C11.5261375,20.0134671 7.72889129,19.3970946 5.99965808,18.3463814 L6,23.0026025 L6,23.0026025 C6,23.3340932 6.96705966,23.8792891 8.69849746,24.292121 C10.6145649,24.7489747 13.2211336,25.0120213 16,25.0120213 C18.7749215,25.0120213 21.3820315,24.747298 23.3012003,24.2884443 C25.0308719,23.8748974 26,23.3293877 26,23.0026025 L26.0015571,18.3412122 C24.2704547,19.392591 20.4659182,20.0134671 16,20.0134671 Z M16,14.005205 C11.5241022,14.005205 7.72815833,13.3931256 5.99951056,12.3456366 L6,17.0043375 L6,17.0043375 C6,17.3358282 6.96705966,17.8810241 8.69849746,18.293856 C10.6145649,18.7507097 13.2211336,19.0137563 16,19.0137563 C18.7749215,19.0137563 21.3820315,18.749033 23.3012003,18.2901793 C25.0308719,17.8766324 26,17.3311227 26,17.0043375 L26.0016296,12.3360792 C24.268618,13.3844212 20.4587919,14.005205 16,14.005205 Z M16,0.00925337553 C18,0.00925337553 19.37,1.53881095 19.37,4.0080967 C19.37,6.27744029 18.26,7.78700365 16.59,8.07691979 C16.9802368,8.76107574 17.7358644,9.15247945 18.52,9.07663062 C18.7919255,9.09015683 19.0644273,9.06661411 19.33,9.00665086 L19.52,9.80641953 C19.1553385,9.92624502 18.7738542,9.98699487 18.39,9.98636748 C17.1281966,10.0385468 15.9688163,9.29515929 15.49,8.12690533 C13.78,7.88697473 12.62,6.36741427 12.62,4.0080967 C12.62,1.52881384 14,0.00925337553 16,0.00925337553 Z M9,0.00925337553 C9.88792711,0.00321372382 10.7386921,0.365136691 11.35,1.00896421 L10.82,1.65877625 C10.342806,1.16613437 9.68596656,0.888321129 9,0.888998908 C8.15,0.888998908 7.56,1.32887167 7.56,2.00867504 C7.56,2.68847841 8.26,3.00838587 8.87,3.31829623 L10,3.81815165 C10.9506714,4.07432162 11.6134656,4.93325079 11.62,5.91754439 C11.62,7.16718293 10.62,8.15689666 8.93,8.15689666 C7.89473899,8.16525229 6.90112144,7.74985966 6.18,7.0072292 L6.78,6.30743162 C7.35330912,6.9259213 8.15656139,7.2804076 9,7.28714823 C10,7.28714823 10.64,6.7672986 10.64,6.00751837 C10.64,5.24773814 10,4.94782489 9.28,4.61792031 L8.15,4.1180649 C7.24882377,3.85476244 6.60913557,3.05538341 6.55,2.11864323 C6.58541549,1.51040895 6.86612087,0.942553933 7.32790968,0.544965104 C7.78969848,0.147376276 8.39306512,-0.0459330096 9,0.00925337553 Z M22.01,0.149212892 L22.01,7.16718293 L25.44,7.16718293 L25.44,8.01693714 L21,8.01693714 L21,0.149212892 L22.01,0.149212892 Z M16,0.888998908 C14.61,0.888998908 13.66,2.09864901 13.66,4.0080967 C13.66,5.91754439 14.58,7.28714823 16,7.28714823 C17.4,7.28714823 18.33,6.01751548 18.33,4.04808514 C18.33,2.0786548 17.39,0.888998908 16,0.888998908 Z" id="Color" fill="#0050D7"></path>
  </g>
</svg>